# xmcd
#
# Track frame offsets:
#	150
#	5267
#	14412
#	37957
#	59255
#	77077
#	91492
#	93985
#	105547
#	135647
#	148785
#	187007
#	201242
#	218562
#	246192
#	264210
#	276862
#	297075
#	319442
#
# Disc length: 4519 seconds
#
# Revision: 0
# Processed by: cddbd v1.5.2PL0 Copyright (c) Steve Scherf et al.
# Submitted via: EasyCDDAExtractor 11.5.3.1
#
DISCID=0f11a513
DTITLE=Taj Mahal - Recycling The Blues.../Oooh So Good'n Blues
DYEAR=1900
DGENRE=
TTITLE0=Conch Intro
TTITLE1=Kalimba
TTITLE2=Bound To Love Some
TTITLE3=Ricochet
TTITLE4=A Free Song (Rise Up Children Shake The Devil Out Of Your Soul)
TTITLE5=Corinna
TTITLE6=Conch: Close
TTITLE7=Cakewalk Into Town
TTITLE8=Sweet Home Chicago
TTITLE9=Texas Woman Blues
TTITLE10=Gitano Negro
TTITLE11=Buck Dancer's Choice
TTITLE12=Little Red Hen
TTITLE13=Oh Mama Don't You Know
TTITLE14=Frankie And Albert
TTITLE15=Railroad Bill
TTITLE16=Dust My Broom
TTITLE17=Built For Comfort
TTITLE18=Teacup's Jazzy Blues Tune
EXTD=
EXTT0=
EXTT1=
EXTT2=
EXTT3=
EXTT4=
EXTT5=
EXTT6=
EXTT7=
EXTT8=
EXTT9=
EXTT10=
EXTT11=
EXTT12=
EXTT13=
EXTT14=
EXTT15=
EXTT16=
EXTT17=
EXTT18=
PLAYORDER=
